<?xml version="1.0" encoding="UTF-8" standalone="no"?>
<!-- Created with Inkscape (http://www.inkscape.org/) -->

<svg
   xmlns:dc="http://purl.org/dc/elements/1.1/"
   xmlns:cc="http://creativecommons.org/ns#"
   xmlns:rdf="http://www.w3.org/1999/02/22-rdf-syntax-ns#"
   xmlns:svg="http://www.w3.org/2000/svg"
   xmlns="http://www.w3.org/2000/svg"
   xmlns:sodipodi="http://sodipodi.sourceforge.net/DTD/sodipodi-0.dtd"
   xmlns:inkscape="http://www.inkscape.org/namespaces/inkscape"
   version="1.1"
   width="230"
   height="255"
   id="svg2"
   xml:space="preserve"
   inkscape:version="0.48.1 "
   sodipodi:docname="UCK_KLA.svg"><sodipodi:namedview
   pagecolor="#ffffff"
   bordercolor="#666666"
   borderopacity="1"
   objecttolerance="10"
   gridtolerance="10"
   guidetolerance="10"
   inkscape:pageopacity="0"
   inkscape:pageshadow="2"
   inkscape:window-width="1366"
   inkscape:window-height="706"
   id="namedview10"
   showgrid="false"
   inkscape:zoom="0.70710678"
   inkscape:cx="-60.727648"
   inkscape:cy="89.332306"
   inkscape:window-x="-8"
   inkscape:window-y="-8"
   inkscape:window-maximized="1"
   inkscape:current-layer="svg2"
   showguides="true"
   inkscape:guide-bbox="true" /><metadata
   id="metadata8"><rdf:RDF><cc:Work
       rdf:about=""><dc:format>image/svg+xml</dc:format><dc:type
         rdf:resource="http://purl.org/dc/dcmitype/StillImage" /></cc:Work></rdf:RDF></metadata><defs
   id="defs6" />
<path
   inkscape:connector-curvature="0"
   d="m 225.13111,140.75609 c 0,-61.246868 -49.64774,-110.898269 -110.89447,-110.898269 -61.247011,0 -110.8947457,49.651401 -110.8947457,110.898269 0,61.25056 49.6477347,110.90194 110.8947457,110.90194 61.24673,0 110.89447,-49.65138 110.89447,-110.90194 z"
   style="fill:#ff0000;fill-opacity:1;fill-rule:nonzero;stroke:#ffe600;stroke-width:3.535;stroke-linecap:butt;stroke-linejoin:miter;stroke-miterlimit:4;stroke-opacity:1;stroke-dasharray:none"
   id="path3103-15" /><path
   sodipodi:nodetypes="ccccc"
   inkscape:connector-curvature="0"
   d="M 221.82764,56.603718 C 200.6323,22.894447 151.96911,2.3704775 114.23649,2.3704775 76.503883,2.3704775 27.840703,22.894447 6.645363,56.603718 L 114.23649,140.75978 z"
   style="fill:#ff0000;fill-opacity:1;fill-rule:nonzero;stroke:#ffe600;stroke-width:3.53546596;stroke-linecap:butt;stroke-linejoin:miter;stroke-miterlimit:4;stroke-opacity:1;stroke-dasharray:none"
   id="path3133" /><path
   inkscape:connector-curvature="0"
   d="m 187.57696,140.75606 c 0,-40.50528 -32.83503,-73.340449 -73.34032,-73.340449 -40.505277,0 -73.340597,32.835169 -73.340597,73.340449 0,40.50902 32.83532,73.34419 73.340597,73.34419 40.50529,0 73.34032,-32.83517 73.34032,-73.34419 z"
   style="fill:#ff0000;fill-opacity:1;fill-rule:nonzero;stroke:#ffe600;stroke-width:3.535;stroke-linecap:butt;stroke-linejoin:miter;stroke-miterlimit:4;stroke-opacity:1;stroke-dasharray:none"
   id="path3111" /><path
   id="path3288"
   style="font-size:18px;font-style:normal;font-variant:normal;font-weight:bold;font-stretch:normal;line-height:125%;letter-spacing:0.79000002px;word-spacing:0px;fill:#fff200;fill-opacity:1;stroke:none;font-family:Arial;-inkscape-font-specification:Arial Bold"
   d="m 122.63619,35.264567 10.979,3.29875 c -0.84,2.88 -2.04,5.34 -3.48,7.26 -1.61875,1.92125 -3.66,3.47875 -5.87888,4.26 -2.4595,0.96 -5.52012,1.5 -9.12012,1.5 -4.31937,0 -7.98,-0.54 -10.79988,-1.67875 -2.81975,-1.20125 -5.279247,-3.3 -7.079617,-6.36125 -2.0395,-3.05875 -3.0595,-6.89875 -3.0595,-11.51875 0,-6.36 1.79925,-11.34 5.27975,-14.58 3.419997,-3.480001 8.519997,-5.220001 14.999497,-5.220001 5.09912,0 9.17975,0.96125 11.99875,2.880001 2.82,1.92125 5.28,5.22 6.72,9.06 l -10.979,2.28 c -0.41938,-1.14 -0.83975,-2.1 -1.20063,-2.46 -0.83987,-0.78 -1.85837,-1.74 -2.63912,-2.16 -1.021,-0.36 -2.28038,-0.72 -3.48,-0.72 -2.81988,0 -5.10062,1.14 -6.48,3.24 -1.019,1.56 -1.62063,4.2 -1.62063,7.49875 0,4.20125 0.78075,7.08 2.04,8.64125 1.20075,1.49875 3.24075,2.28 5.64063,2.28 2.27987,0 4.07862,-0.54125 5.27937,-1.74125 1.25975,-1.13875 2.27975,-3.23875 2.88038,-5.75875 z m -14.33987,19.79875 0.78024,-2.76 c 1.4395,-0.36 2.94,-0.72 4.37988,-0.72 2.75975,0 4.80025,0.54 5.87987,1.44 1.13963,0.84 1.67925,2.04 1.67925,3.3 0,0.72125 -0.35937,1.74 -0.77975,2.46 -0.35987,0.6 -1.439,1.5 -2.51962,1.86 -1.32025,0.35875 -3.18013,0.72 -5.15913,0.72 -1.86087,0 -4.26075,-0.24 -6.66062,-0.54125 l 0,-2.93875 c 1.68012,0.18 3.71975,0.3 5.58,0.3 1.19975,0 2.33987,-0.12 2.70025,-0.54125 0.59962,-0.3 0.89937,-0.83875 0.89937,-1.31875 0,-0.42 -0.11962,-0.9 -0.54,-1.26 -0.35937,-0.3 -1.25975,-0.48 -2.15962,-0.48 -1.13975,0 -2.58063,0.18 -4.08013,0.48" /><path
   style="font-size:18px;font-style:normal;font-variant:normal;font-weight:bold;font-stretch:normal;line-height:125%;letter-spacing:0.79000002px;word-spacing:0px;fill:#fff200;fill-opacity:1;stroke:none;font-family:Arial;-inkscape-font-specification:Arial Bold"
   d="m 167.39519,25.004567 10.5,6.24 -7.8,13.13875 19.0775,-6.47875 14.16125,8.4 -20.58,5.57875 0.65875,29.16 -13.13875,-7.80125 1.08,-18.29875 -8.93875,2.39875 -4.92,8.28125 -10.56,-6.24 z"
   id="path3286" /><path
   style="font-size:18px;font-style:normal;font-variant:normal;font-weight:bold;font-stretch:normal;line-height:125%;letter-spacing:0.79000002px;word-spacing:0px;fill:#fff200;fill-opacity:1;stroke:none;font-family:Arial;-inkscape-font-specification:Arial Bold"
   d="m 48.179063,34.244567 10.79838,-7.5 14.64062,21.05875 c 1.37888,1.92 2.52,4.32 3.05913,6.60125 0.48,2.21875 0.6005,4.73875 0.23975,6.83875 -0.419,2.4 -1.25925,4.62 -2.27888,6.12 -1.62062,2.16 -4.0805,4.38 -6.89987,6.3 -1.80075,1.26 -3.84075,2.46 -5.87938,3.66 -3.68212,2.064215 -8.0311,2.528317 -11.76075,1.62 -1.98,-0.54 -4.019,-1.2 -5.33987,-2.4 -2.04,-1.74125 -3.83938,-3.6 -4.9795,-5.22125 l -14.63963,-21.05875 10.79988,-7.49875 15.0595,21.59875 c 1.20075,1.74 2.88037,2.94 4.67925,3.3 1.80025,0.36 3.78075,-0.24 5.5205,-1.5 1.73975,-1.2 2.9995,-2.87875 3.30075,-4.68 0.29937,-1.8 -0.0605,-3.9 -1.26075,-5.64 z"
   id="path3098" /><g
   transform="translate(-642.92057,41.779896)"
   style="font-size:24px;font-style:normal;font-variant:normal;font-weight:bold;font-stretch:normal;line-height:125%;letter-spacing:0px;word-spacing:0px;fill:#fff200;fill-opacity:1;stroke:none;font-family:Arial;-inkscape-font-specification:Arial Bold"
   id="text3127-0"><path
     d="m 683.1335,59.77499 -1.33309,3.202354 -8.5901,-3.575948 c -1.36317,-0.567475 -2.26322,-0.89561 -2.70014,-0.984404 -0.70618,-0.133191 -1.36314,-0.02375 -1.9709,0.328312 -0.60776,0.352052 -1.09779,0.975257 -1.4701,1.869616 -0.37831,0.908766 -0.47782,1.671268 -0.29854,2.287507 0.17929,0.616216 0.51989,1.083804 1.02179,1.402764 0.50191,0.318935 1.38035,0.739625 2.63532,1.262069 l 8.77402,3.652511 -1.3331,3.202355 -8.33044,-3.46786 c -1.90411,-0.79267 -3.21321,-1.439181 -3.92732,-1.939535 -0.7141,-0.500385 -1.24479,-1.095766 -1.59207,-1.786144 -0.34727,-0.690405 -0.51926,-1.491882 -0.51595,-2.404431 0.003,-0.912571 0.26618,-1.996339 0.78861,-3.251306 0.63052,-1.514634 1.28357,-2.590415 1.95914,-3.227347 0.67558,-0.636941 1.38743,-1.066258 2.13556,-1.28795 0.74812,-0.2217 1.45874,-0.277068 2.13185,-0.166104 0.99585,0.169145 2.38091,0.623024 4.15519,1.361637 z"
     style="fill:#fff200;fill-opacity:1"
     id="path3234" /><path
     d="m 666.55615,69.750727 -0.44093,3.362124 c -1.14945,-0.0574 -2.05295,0.156592 -2.71051,0.641987 -0.65755,0.485384 -1.10518,1.241855 -1.34287,2.269417 -0.25177,1.088438 -0.21124,1.961838 0.12161,2.620204 0.33285,0.658344 0.80754,1.058829 1.42407,1.201455 0.3958,0.09154 0.75946,0.05338 1.09098,-0.114497 0.33152,-0.167899 0.66694,-0.51731 1.00627,-1.048236 0.22855,-0.364117 0.68076,-1.20974 1.35662,-2.536869 0.86811,-1.707669 1.71398,-2.851142 2.5376,-3.430424 1.15868,-0.814518 2.40022,-1.068596 3.72464,-0.762234 0.85247,0.19719 1.59388,0.623286 2.22421,1.278288 0.63031,0.654991 1.03436,1.482174 1.21216,2.481551 0.17777,0.999362 0.11789,2.142219 -0.17965,3.428576 -0.48596,2.100765 -1.31224,3.575535 -2.47883,4.424315 -1.16662,0.848749 -2.52485,1.121943 -4.07469,0.819585 l 0.63332,-3.413846 c 0.89354,0.05432 1.58372,-0.112791 2.07055,-0.501344 0.4868,-0.388579 0.84025,-1.058582 1.06034,-2.01001 0.22712,-0.981895 0.20324,-1.797315 -0.0716,-2.446263 -0.17605,-0.417612 -0.481,-0.676593 -0.91484,-0.776943 -0.39581,-0.09156 -0.77326,-0.0025 -1.13235,0.26731 -0.45635,0.343485 -1.06876,1.292377 -1.83724,2.84668 -0.7685,1.554281 -1.45128,2.677344 -2.04833,3.369193 -0.59706,0.69182 -1.30673,1.177183 -2.12902,1.456088 -0.82229,0.278874 -1.76243,0.295953 -2.82043,0.05124 -0.95905,-0.22186 -1.79559,-0.696022 -2.50961,-1.422488 -0.71401,-0.726493 -1.16195,-1.623967 -1.3438,-2.692425 -0.18185,-1.068481 -0.10463,-2.329614 0.23166,-3.783405 0.48947,-2.116007 1.35441,-3.627941 2.59483,-4.535807 1.24042,-0.907871 2.82237,-1.25561 4.74587,-1.043217 z"
     style="fill:#fff200;fill-opacity:1"
     id="path3236" /><path
     d="m 657.52898,85.050829 17.14951,1.017791 -0.2055,3.462657 -6.74984,-0.40059 -0.40268,6.784937 6.74985,0.40059 -0.20551,3.462657 -17.14951,-1.01779 0.2055,-3.462658 7.49853,0.445023 0.40267,-6.784936 -7.49852,-0.445023 z"
     style="fill:#fff200;fill-opacity:1"
     id="path3238" /><path
     d="m 657.28237,106.22599 14.20047,-1.44141 -0.51478,-5.071592 2.89139,-0.293488 1.37868,13.58255 -2.89139,0.29349 -0.5136,-5.05994 -14.20048,1.44141 z"
     style="fill:#fff200;fill-opacity:1"
     id="path3240" /><path
     d="m 658.55292,116.98906 16.59955,-4.4268 1.88124,7.05424 c 0.47306,1.77394 0.66771,3.10263 0.58396,3.98609 -0.0838,0.88344 -0.44248,1.66839 -1.07604,2.35484 -0.6336,0.68642 -1.44105,1.16049 -2.42236,1.42221 -1.24555,0.33215 -2.37169,0.24032 -3.37843,-0.27548 -1.00676,-0.51583 -1.81009,-1.474 -2.40997,-2.87451 -0.22948,0.83739 -0.53418,1.55943 -0.91411,2.16611 -0.37996,0.60666 -1.10864,1.48219 -2.18607,2.62661 l -2.69787,2.89044 -1.06896,-4.00835 2.96584,-3.3864 c 1.06133,-1.2048 1.71768,-2.0105 1.96905,-2.41712 0.25136,-0.40664 0.39201,-0.80395 0.42196,-1.19195 0.0299,-0.38801 -0.0578,-0.96699 -0.2631,-1.73696 l -0.18118,-0.67938 -6.92969,1.84803 z m 10.4731,0.797 0.6613,2.47974 c 0.42878,1.60786 0.76446,2.59372 1.00704,2.95757 0.24256,0.36383 0.56011,0.6147 0.95266,0.75259 0.39252,0.13788 0.83789,0.14038 1.33612,0.008 0.55859,-0.14898 0.96986,-0.41835 1.23382,-0.80811 0.26394,-0.38977 0.36873,-0.86849 0.31439,-1.43614 -0.0348,-0.28183 -0.23329,-1.10212 -0.59563,-2.46088 l -0.69754,-2.61561 z"
     style="fill:#fff200;fill-opacity:1"
     id="path3242" /><path
     d="m 663.48434,133.48557 15.95466,-6.37107 1.28638,3.22141 -15.95466,6.37106 z"
     style="fill:#fff200;fill-opacity:1"
     id="path3244" /><path
     d="m 673.31797,153.42481 -1.80747,-3.31238 2.70704,-3.18594 -3.28938,-6.02812 -4.10474,0.6245 -1.76257,-3.23008 18.28577,-2.35524 1.75696,3.2198 z m 2.90717,-8.86205 4.46219,-5.13158 -6.7075,1.01682 z"
     style="fill:#fff200;fill-opacity:1"
     id="path3246" /><path
     d="m 690.52558,164.13735 1.48126,3.2023 c -1.73206,0.88402 -3.3385,1.19031 -4.8193,0.91888 -1.48083,-0.27145 -2.84305,-1.08776 -4.08667,-2.44893 -1.53872,-1.68419 -2.22808,-3.59408 -2.0681,-5.72969 0.15998,-2.13561 1.23779,-4.11506 3.23343,-5.93833 2.11098,-1.92866 4.24843,-2.88149 6.41235,-2.85848 2.1639,0.023 4.05738,0.92275 5.68042,2.69921 1.4175,1.55152 2.11037,3.2307 2.07861,5.03754 -0.0152,1.07211 -0.39866,2.21608 -1.15028,3.43192 l -2.92159,-1.98162 c 0.52049,-0.75069 0.75371,-1.53785 0.69966,-2.36148 -0.0541,-0.82363 -0.39202,-1.57574 -1.01382,-2.25633 -0.85895,-0.94014 -1.89327,-1.39465 -3.10294,-1.36354 -1.2097,0.0311 -2.57011,0.73699 -4.08125,2.11762 -1.60343,1.46494 -2.48196,2.7967 -2.63559,3.99529 -0.15364,1.19858 0.19111,2.25929 1.03424,3.18213 0.62181,0.68058 1.37296,1.0684 2.25346,1.16344 0.88048,0.095 1.88252,-0.17494 3.00611,-0.80993 z m -13.05841,2.07327 1.02088,-0.93272 c 0.47932,0.65204 0.94558,1.22607 1.39876,1.7221 0.46899,0.51332 0.90907,0.80968 1.32023,0.88907 0.31232,0.0639 0.57806,-0.004 0.79724,-0.20456 0.1961,-0.17918 0.28457,-0.42403 0.26541,-0.73456 -0.0192,-0.31055 -0.20001,-0.65327 -0.54253,-1.02816 -0.33726,-0.36915 -0.74009,-0.69424 -1.2085,-0.97528 l 1.06202,-0.55759 c 0.56675,0.3076 1.08726,0.72095 1.56153,1.24005 0.65869,0.72096 1.00068,1.41381 1.02599,2.07855 0.0253,0.66472 -0.18989,1.20523 -0.64553,1.62154 -0.50757,0.46371 -1.10967,0.63284 -1.8063,0.50741 -0.94373,-0.16427 -1.89249,-0.76837 -2.84628,-1.81232 -0.67977,-0.74405 -1.14742,-1.34856 -1.40292,-1.81353 z"
     style="fill:#fff200;fill-opacity:1"
     id="path3248" /><path
     d="m 690.51093,172.88377 10.57209,-13.36265 2.72032,2.15223 -8.77615,11.09265 6.76404,5.35149 -1.79595,2.27 z"
     style="fill:#fff200;fill-opacity:1"
     id="path3250" /><path
     d="m 702.09431,181.55081 9.16428,-14.53126 2.93401,1.85036 -9.16428,14.53126 z"
     style="fill:#fff200;fill-opacity:1"
     id="path3252" /><path
     d="m 707.78455,185.26547 7.38273,-15.51248 6.59228,3.13741 c 1.65775,0.78898 2.79597,1.50156 3.41466,2.13775 0.61865,0.63621 0.98418,1.41799 1.09659,2.34533 0.11237,0.92737 -0.0497,1.84957 -0.48609,2.76663 -0.55398,1.16397 -1.35355,1.96229 -2.39871,2.39497 -1.0452,0.43268 -2.29553,0.42381 -3.75101,-0.0266 0.48919,0.71735 0.84177,1.41726 1.05774,2.09973 0.21594,0.68247 0.41075,1.80479 0.58443,3.36696 l 0.4538,3.92774 -3.74585,-1.78273 -0.65797,-4.45319 c -0.2301,-1.58903 -0.41859,-2.611 -0.56546,-3.06593 -0.14689,-0.45492 -0.35841,-0.81948 -0.63456,-1.09367 -0.27617,-0.27419 -0.77402,-0.58251 -1.49355,-0.92496 l -0.63489,-0.30215 -3.08201,6.47587 z m 7.39256,-7.4613 2.31734,1.10287 c 1.50256,0.71512 2.471,1.09815 2.90533,1.1491 0.4343,0.051 0.83113,-0.0284 1.19049,-0.23806 0.35934,-0.20967 0.64981,-0.5473 0.87141,-1.01289 0.24842,-0.52201 0.3097,-1.00982 0.18382,-1.46341 -0.1259,-0.45358 -0.42266,-0.84356 -0.89026,-1.16995 -0.23719,-0.15612 -0.99066,-0.53635 -2.26043,-1.14067 l -2.44432,-1.16331 z"
     style="fill:#fff200;fill-opacity:1"
     id="path3254" /><path
     d="m 723.54427,192.20016 5.4848,-16.28062 3.28722,1.10744 -5.4848,16.28062 z"
     style="fill:#fff200;fill-opacity:1"
     id="path3256" /><path
     d="m 729.87047,194.56267 3.2578,-16.86797 5.09721,0.98445 0.83839,12.09723 5.24835,-10.92167 5.10871,0.98667 -3.25779,16.86797 -3.16418,-0.61111 2.56445,-13.27806 -5.91273,12.63139 -3.27925,-0.63334 -0.77232,-13.92251 -2.56445,13.27807 z"
     style="fill:#fff200;fill-opacity:1"
     id="path3258" /><path
     d="m 753.53521,197.89879 0.2318,-14.27155 -5.09698,-0.0828 0.0472,-2.90587 13.65054,0.22172 -0.0472,2.90587 -5.08526,-0.0826 -0.23181,14.27156 z"
     style="fill:#fff200;fill-opacity:1"
     id="path3260" /><path
     d="m 779.69364,195.67645 -3.73445,0.54106 -2.04404,-3.64694 -6.79623,0.98467 -0.84377,4.06533 -3.64167,0.52762 4.15892,-17.96162 3.63007,-0.52594 z m -7.29531,-5.81087 -3.25682,-5.9697 -1.38224,6.64183 z"
     style="fill:#fff200;fill-opacity:1"
     id="path3262" /><path
     d="m 781.51024,195.10332 -5.34672,-16.32649 6.93821,-2.27217 c 1.74475,-0.57137 3.0605,-0.8399 3.94726,-0.8056 0.88675,0.0343 1.69049,0.34863 2.41124,0.94288 0.72074,0.59428 1.23915,1.374 1.55525,2.33917 0.40117,1.22506 0.37236,2.35457 -0.0864,3.38854 -0.45881,1.034 -1.37064,1.88956 -2.73548,2.5667 0.84891,0.18237 1.58683,0.44629 2.21378,0.79175 0.62693,0.34549 1.54178,1.02416 2.74456,2.03601 l 3.03657,2.53227 -3.94242,1.29109 -3.5467,-2.77213 c -1.26218,-0.9924 -2.10327,-1.60274 -2.5233,-1.83102 -0.42003,-0.22826 -0.82458,-0.34651 -1.21364,-0.35475 -0.38908,-0.008 -0.96226,0.11167 -1.71956,0.35967 l -0.6682,0.21883 2.23205,6.81569 z m 0.21099,-10.50126 2.43895,-0.79872 c 1.58142,-0.51788 2.54699,-0.90808 2.89673,-1.1706 0.34973,-0.26249 0.58247,-0.59356 0.69823,-0.99319 0.11575,-0.39961 0.0934,-0.84443 -0.0671,-1.33446 -0.17993,-0.5494 -0.47184,-0.94499 -0.87574,-1.18678 -0.4039,-0.24176 -0.88772,-0.31966 -1.45146,-0.23371 -0.27944,0.0504 -1.08736,0.29446 -2.42377,0.7321 l -2.57259,0.84249 z"
     style="fill:#fff200;fill-opacity:1"
     id="path3264" /><path
     d="m 797.88347,189.37833 -7.97279,-15.21763 11.28347,-5.91161 1.34874,2.57433 -8.21088,4.30182 1.7675,3.37363 7.63996,-4.00271 1.3433,2.56395 -7.63996,4.00271 2.16995,4.14177 8.50153,-4.4541 1.3433,2.56395 z"
     style="fill:#fff200;fill-opacity:1"
     id="path3266" /><path
     d="m 817.41681,177.84596 -11.1985,-13.02825 9.6601,-8.30339 1.89442,2.20397 -7.02956,6.04229 2.48261,2.88826 6.54079,-5.62217 1.88678,2.19508 -6.54078,5.62216 3.04788,3.54589 7.2784,-6.25619 1.88679,2.19508 z"
     style="fill:#fff200;fill-opacity:1"
     id="path3268" /><path
     d="m 833.90074,162.18571 -13.92238,-10.06523 2.03227,-2.81106 6.18245,4.46962 -2.07671,-10.14874 2.73258,-3.77975 1.63279,9.16262 12.49556,0.61771 -2.62959,3.63729 -9.30074,-0.89642 0.67894,3.96136 4.20711,3.04154 z"
     style="fill:#fff200;fill-opacity:1"
     id="path3270" /><path
     d="m 835.88422,144.9569 c -1.57767,-0.75725 -2.78855,-1.62874 -3.63263,-2.61449 -0.6198,-0.73077 -1.09691,-1.55122 -1.43135,-2.46134 -0.33442,-0.9101 -0.47896,-1.80056 -0.43363,-2.67139 0.0546,-1.16098 0.38452,-2.37184 0.98963,-3.63259 1.09531,-2.28198 2.67957,-3.76819 4.75277,-4.45862 2.07321,-0.69039 4.37055,-0.43047 6.89201,0.77975 2.50034,1.20012 4.13037,2.81874 4.89009,4.85587 0.75971,2.03716 0.5936,4.19321 -0.49832,6.46816 -1.10544,2.30314 -2.68695,3.79716 -4.74452,4.48207 -2.05757,0.68492 -4.31892,0.43578 -6.78405,-0.74742 z m 1.44096,-3.27298 c 1.75377,0.84177 3.27756,1.07486 4.57137,0.69929 1.29382,-0.37556 2.23991,-1.18667 2.83827,-2.43332 0.59836,-1.24664 0.64038,-2.48518 0.12607,-3.71562 -0.51431,-1.23041 -1.66948,-2.27665 -3.4655,-3.13871 -1.77489,-0.85189 -3.28579,-1.09829 -4.53271,-0.73923 -1.2469,0.3591 -2.17968,1.1831 -2.79833,2.47199 -0.61863,1.28892 -0.67531,2.53993 -0.17002,3.75302 0.50531,1.21311 1.64893,2.2473 3.43085,3.10258 z"
     style="fill:#fff200;fill-opacity:1"
     id="path3272" /><path
     d="m 845.92539,130.32086 0.59948,-3.3375 c 1.14545,0.11171 2.05806,-0.0593 2.73784,-0.51305 0.67978,-0.45373 1.16269,-1.18818 1.44872,-2.20335 0.30299,-1.07531 0.30381,-1.94965 0.002,-2.62302 -0.30133,-0.67336 -0.75654,-1.09585 -1.36564,-1.26748 -0.39102,-0.11016 -0.75608,-0.0892 -1.09517,0.0628 -0.33909,0.15203 -0.69067,0.48518 -1.05473,0.99946 -0.24553,0.3529 -0.73723,1.17618 -1.47511,2.46985 -0.94793,1.66469 -1.84694,2.76687 -2.69704,3.30654 -1.19591,0.7588 -2.44808,0.95386 -3.75652,0.58519 -0.8422,-0.2373 -1.56261,-0.69799 -2.16126,-1.38207 -0.59861,-0.68408 -0.96308,-1.52945 -1.09341,-2.53612 -0.1303,-1.00665 -0.0164,-2.1454 0.34164,-3.41624 0.58479,-2.07542 1.47991,-3.50945 2.68535,-4.3021 1.20546,-0.79261 2.57509,-1.00125 4.10889,-0.62591 l -0.79409,3.38007 c -0.88998,-0.0965 -1.58729,0.0377 -2.09195,0.40283 -0.50464,0.36512 -0.88939,1.01765 -1.15424,1.9576 -0.27331,0.97005 -0.28803,1.78569 -0.0442,2.44691 0.1561,0.42547 0.44845,0.69859 0.87706,0.81935 0.39104,0.11019 0.77228,0.039 1.14372,-0.21344 0.47209,-0.32152 1.12871,-1.24038 1.96986,-2.75658 0.84116,-1.51619 1.5763,-2.6057 2.20541,-3.26853 0.62912,-0.6628 1.36096,-1.11405 2.19551,-1.35374 0.83457,-0.23967 1.77447,-0.21225 2.8197,0.0822 0.94749,0.26698 1.76065,0.78019 2.43951,1.53961 0.67885,0.75946 1.08383,1.67712 1.21493,2.75298 0.1311,1.07589 -0.006,2.33196 -0.41037,3.76822 -0.58902,2.09048 -1.52452,3.5598 -2.80649,4.40797 -1.28198,0.84818 -2.87861,1.1207 -4.78991,0.81755 z"
     style="fill:#fff200;fill-opacity:1"
     id="path3274" /><path
     d="m 847.20147,115.3343 c -1.74124,-0.17474 -3.17652,-0.5818 -4.30583,-1.2212 -0.83161,-0.47603 -1.5596,-1.08497 -2.18398,-1.8268 -0.62435,-0.74183 -1.06348,-1.52985 -1.31741,-2.36406 -0.34398,-1.1102 -0.44615,-2.36103 -0.30654,-3.75249 0.25276,-2.51858 1.23623,-4.45545 2.9504,-5.81061 1.7142,-1.355129 3.96274,-1.893067 6.74563,-1.613821 2.75958,0.276943 4.84338,1.243745 6.2514,2.900411 1.40803,1.65669 1.98606,3.74045 1.7341,6.25126 -0.25509,2.54193 -1.23331,4.48521 -2.93467,5.82986 -1.70135,1.34466 -3.91238,1.88047 -6.6331,1.60745 z m 0.24028,-3.56806 c 1.9356,0.19424 3.44769,-0.1055 4.53628,-0.89921 1.0886,-0.7937 1.70194,-1.87851 1.84001,-3.25442 0.13807,-1.37589 -0.24418,-2.55471 -1.14676,-3.53647 -0.90257,-0.98173 -2.34498,-1.57206 -4.32722,-1.77099 -1.9589,-0.19657 -3.4634,0.0863 -4.51352,0.84849 -1.0501,0.76225 -1.64652,1.85464 -1.78929,3.27717 -0.14274,1.42255 0.22998,2.61808 1.11817,3.5866 0.88821,0.96853 2.31566,1.55148 4.28233,1.74883 z"
     style="fill:#fff200;fill-opacity:1"
     id="path3276" /><path
     d="m 856.83276,92.498789 -16.67845,7.394467 -0.27823,-3.751416 12.35845,-5.276175 -12.99118,-3.255081 -0.27216,-3.669609 17.58768,4.864832 z"
     style="fill:#fff200;fill-opacity:1"
     id="path3278" /><path
     d="m 855.68882,80.891524 -16.71205,3.981102 -2.95188,-12.391538 2.82714,-0.673474 2.14806,9.017209 3.70492,-0.882577 -1.9987,-8.390223 2.81574,-0.670758 1.9987,8.390222 4.5485,-1.083533 -2.22409,-9.336403 2.81574,-0.670758 z m -18.22362,1.883663 -2.74734,0.654465 -0.65446,-2.747342 2.74734,-0.654465 z m -1.16771,-4.901896 -2.74735,0.654465 -0.65718,-2.758742 2.74735,-0.654465 z"
     style="fill:#fff200;fill-opacity:1"
     id="path3280" /><path
     d="m 846.87268,68.303984 -1.59644,-2.991601 c 0.9685,-0.62173 1.57908,-1.321227 1.83175,-2.098493 0.25269,-0.777259 0.17694,-1.652974 -0.22724,-2.62715 -0.42812,-1.031891 -0.969,-1.718858 -1.62264,-2.060901 -0.65362,-0.342026 -1.27269,-0.39179 -1.8572,-0.149294 -0.37522,0.155691 -0.64888,0.398216 -0.82096,0.727575 -0.17206,0.329375 -0.24175,0.808687 -0.20906,1.437937 0.0258,0.429132 0.14967,1.38004 0.37159,2.852729 0.28681,1.894067 0.26362,3.316208 -0.0696,4.266426 -0.46895,1.336429 -1.33124,2.265113 -2.58685,2.786053 -0.80818,0.335313 -1.65912,0.419813 -2.55282,0.2535 -0.89366,-0.166319 -1.70339,-0.604293 -2.4292,-1.313922 -0.72577,-0.709635 -1.34165,-1.674208 -1.84764,-2.893724 -0.82629,-1.991635 -1.0117,-3.671904 -0.55622,-5.040812 0.45551,-1.368897 1.4016,-2.380987 2.83828,-3.036274 l 1.47,3.145557 c -0.75852,0.47542 -1.22282,1.012729 -1.39292,1.611927 -0.17006,0.599205 -0.068,1.349811 0.30624,2.251818 0.38623,0.930874 0.87984,1.580359 1.48083,1.948456 0.38607,0.237363 0.78476,0.270718 1.19606,0.100067 0.37525,-0.155683 0.6305,-0.447665 0.76575,-0.875946 0.17151,-0.544812 0.11793,-1.672898 -0.16074,-3.384261 -0.27865,-1.711356 -0.37628,-3.022051 -0.29288,-3.932089 0.0834,-0.910022 0.37851,-1.717569 0.88527,-2.422642 0.50679,-0.705052 1.2617,-1.265659 2.26472,-1.681822 0.90924,-0.377218 1.86552,-0.477935 2.86885,-0.30215 1.00335,0.175808 1.88966,0.645449 2.65893,1.408922 0.76928,0.763494 1.43984,1.83437 2.01167,3.212632 0.8323,2.006075 1.00787,3.739063 0.52669,5.19897 -0.48117,1.459911 -1.56593,2.662748 -3.25426,3.608512 z"
     style="fill:#fff200;fill-opacity:1"
     id="path3282" /></g><path
   style="fill:#000000;fill-opacity:1;fill-rule:nonzero;stroke:none"
   d="m 94.8015,92.93812 c -1.20714,0.063 -2.2427,0.5141 -2.90894,1.57616 -3.27045,-0.1824 -7.2049,-0.36011 -6.47848,3.69702 0.65028,-0.0603 1.00387,-0.43207 1.2053,-0.84603 0.28866,-0.5916 1.25889,-0.70076 2.17881,-0.37086 0.80259,0.28708 1.46079,0.71494 0.8692,1.4255 -0.30294,0.3632 -1.48557,0.54008 -2.21357,0.35927 -0.72641,-0.18081 -2.07909,-0.38635 -2.86259,-0.47517 -0.53133,-0.0603 -1.56598,-0.73151 -2.05132,-1.66887 -0.48375,-0.93895 -1.72663,-2.05687 -2.5149,-1.39073 -0.78669,0.66614 0.15205,1.78385 0.93874,2.48013 0.78826,0.69628 2.38649,1.57616 3.23344,1.57616 1.12134,0 2.21889,0.27192 2.79305,0.39404 0.2728,2.138 3.08538,3.10828 5.44702,3.04802 2.36164,-0.0603 5.48046,1.07788 8.35597,3.45364 3.72573,3.07742 6.35455,13.25828 0.058,13.25828 -3.9366,0 -3.33081,-3.93622 -3.21025,-6.17716 0.12054,-2.2403 -1.0904,-4.66416 -3.75497,-5.63245 -2.66458,-0.96892 -8.10611,-2.84848 -9.61921,-3.69702 -0.60586,-0.42347 -1.24561,1.07215 -1.33278,1.93543 -0.0603,0.60525 -0.74327,0.66733 -2.66556,0.0695 -5.45128,-1.69581 -10.42147,-4.6039 -12.78312,-9.0861 -2.36321,-4.48061 -6.81354,-0.0746 -4.60099,3.69702 2.66457,4.5393 11.56818,8.23188 17.19868,8.95861 2.61692,0.33704 2.59854,3.46399 0.12748,3.81292 -5.14675,0.72736 -10.18902,0.62617 -13.32781,-3.45365 -2.42191,-3.14927 -4.80653,-0.32049 -3.75497,2.17881 2.2411,5.32883 9.84181,7.5776 17.25662,3.99835 1.75576,-0.84807 3.64188,-0.70779 2.12085,1.39072 -3.81445,5.26857 -8.8968,6.08131 -15.26323,2.17881 -1.87631,-1.14989 -3.33149,-0.95915 -3.75497,-0.23179 -0.74545,1.2763 -1.08192,2.42053 1.0894,3.98676 4.78355,3.45142 10.32602,3.21725 14.77649,0.91556 1.75577,-0.90817 4.96783,-1.63349 2.12086,2.12086 -2.84537,3.75515 -10.10533,5.68899 -13.07284,3.56954 -2.96593,-2.12008 -6.66131,-0.18783 -4.29967,3.08278 2.36164,3.2695 7.26221,2.42816 9.50331,1.21689 2.23951,-1.21128 5.69783,-2.8456 7.15066,-3.51159 1.45283,-0.66662 2.12307,0.47397 0.47517,2.36424 -3.69393,4.23969 -7.50095,7.79153 -12.65563,6.10762 -2.96751,-0.96846 -5.689,-1.08399 -4.90232,2.54966 0.78827,3.63239 6.90434,3.86847 9.93212,2.05133 3.02778,-1.81651 5.75184,-3.86447 7.56788,-5.62087 1.81761,-1.75592 3.65315,-1.6976 1.6341,1.26325 -4.54087,6.66081 -8.41492,11.54581 -14.89238,10.30298 -5.99529,-1.15099 -4.50607,2.44503 -3.21026,3.56954 3.69234,3.20922 10.17774,2.35521 17.92881,-7.15066 0.60429,-0.74291 1.62232,-0.52877 1.0894,0.84602 -3.45126,8.90175 -9.20468,14.66259 -14.77649,13.26987 -2.8976,-0.72483 -5.73201,0.87835 -2.79305,3.44206 3.33071,2.90692 9.38497,1.81946 13.74504,-3.02484 4.36006,-4.84493 7.0276,-8.28881 7.99668,-10.10596 0.96909,-1.81588 2.41757,-1.88726 2.23676,0.47517 -0.1824,2.36115 -1.93017,6.96923 -5.01822,8.48344 -1.59874,0.78367 -3.02778,2.53873 0,3.87086 3.02779,1.33197 6.59608,-4.05343 9.50332,-11.9255 0.341,-0.92498 2.34905,-1.15692 2.30629,0.60265 -0.0603,2.48313 -1.27533,4.54866 -2.60762,5.75993 -1.33228,1.21112 -0.28672,3.23886 1.51822,2.42219 2.54244,-1.15052 4.14806,-2.84028 5.1457,-5.38907 0.5456,-1.39224 1.77458,-1.87332 1.0894,0.30132 -2.0587,6.53994 -6.65962,9.68644 -12.71358,12.71358 0.90722,0.90818 1.72126,1.90574 2.53808,2.72351 -3.72406,1.90771 -7.63056,3.17832 -10.7202,4.45034 -2.45204,-1.63507 -4.63713,-2.54641 -5.72517,-4.09106 -0.36479,-2.08863 -2.90782,-2.99364 -4.54304,-2.0861 -2.81525,-1.08978 -4.81423,-0.8141 -4.99503,1.81954 1.63522,-0.27249 3.00217,-0.54571 4.18377,0.5447 0.54402,1.27201 2.27041,1.91268 3.90563,1.36755 1.81762,1.08979 3.36071,2.17125 4.45033,2.89736 -3.45126,-0.0904 -5.99522,-0.27118 -7.81126,-0.45199 -1.72563,-1.72549 -3.36375,-1.72489 -4.63576,-0.5447 -2.08885,-0.4541 -3.72088,0.51296 -4.2649,2.32946 1.57337,-0.18144 3.02694,-0.71912 4.05629,-0.17383 0.84695,1.57432 3.21378,1.62505 4.72848,0.47515 2.29978,-0.0613 6.78191,-0.11584 7.81126,-0.11584 -1.51469,0.90832 -3.33292,1.99295 -4.24173,2.53807 -3.57179,-0.72673 -5.51583,0.67518 -5.27317,3.27979 -0.84855,1.33213 -0.78756,3.2095 0.24337,4.0563 0.2411,-1.08979 0.84352,-2.48136 1.69206,-3.26822 2.17924,0.42317 3.76259,-0.31271 4.42715,-2.73509 1.39414,-0.90834 3.20239,-2.05355 3.92881,-2.53807 0.728,-0.48375 1.30629,-1.03917 2.96688,-0.30133 1.63521,0.72737 3.15833,1.33299 4.12582,1.87747 0.54561,2.11944 2.59653,2.24439 3.92882,1.27485 0.84854,0.48438 1.57758,1.32842 2.06291,2.23675 0.78669,-1.39288 0.36575,-3.27123 -1.14735,-3.75497 -0.5456,-1.6357 -2.48989,-2.17757 -3.88245,-1.39072 -1.14989,-0.48391 -2.78519,-1.27322 -3.51159,-1.57616 2.36164,-0.84695 8.35627,-3.09017 10.47683,-3.99834 1.99843,1.51404 4.24061,2.96171 5.87583,2.53806 0.24265,-1.45345 0.9978,-2.64311 2.00497,-4.71688 1.60508,-3.30026 3.59317,-6.38984 5.22681,-8.29801 1.63681,-1.90771 3.29976,-0.81236 3.18709,1.81953 -0.27122,6.35787 -4.96345,15.86213 -11.86755,16.22517 -2.36005,0.12511 -3.30553,0.60894 -2.00497,2.36424 1.21016,1.6349 4.96911,1.84518 7.05794,0.30132 2.08885,-1.54451 2.8109,-1.45668 2.38742,0.60265 -0.42506,2.05886 -2.79047,2.84242 -4.54305,2.96689 -2.54245,0.18225 -5.44441,1.0996 -3.08277,3.2798 2.36164,2.17908 6.2407,0.96304 9.08608,-2.30629 0.98813,-1.13514 1.7635,-1.45977 1.69206,0.35927 -0.12054,3.14849 -1.99222,5.15135 -3.92881,5.57451 -1.93815,0.42379 -3.88175,0.93904 -3.33775,2.06291 0.90724,1.87726 3.93855,2.17078 5.63245,1.26324 1.6971,-0.90897 3.50766,-2.59844 3.87087,-3.62747 0.36321,-1.02984 1.11382,-0.44998 0.91556,0.96191 -0.42348,3.02779 -2.54967,2.97549 -2.54967,5.4586 0,2.48265 2.0617,4.90036 4.4851,7.62584 2.42337,-2.72548 4.4851,-5.14317 4.4851,-7.62584 0,-2.48312 -2.12611,-2.4308 -2.54966,-5.4586 -0.19827,-1.4119 0.55241,-1.99175 0.91556,-0.96191 0.3632,1.02904 2.17395,2.71851 3.87085,3.62747 1.6939,0.90754 4.72525,0.61401 5.63245,-1.26324 0.54402,-1.12389 -1.39951,-1.63912 -3.33775,-2.06291 -1.93652,-0.42316 -3.80864,-2.426 -3.9288,-5.57451 -0.0711,-1.81904 0.70374,-1.4944 1.69205,-0.35927 2.84539,3.26932 6.7243,4.48538 9.08609,2.30629 2.36167,-2.18022 -0.54041,-3.09755 -3.08278,-3.2798 -1.75269,-0.12447 -4.11781,-0.90803 -4.54304,-2.96689 -0.42357,-2.05936 0.29865,-2.14715 2.38741,-0.60265 2.08883,1.54378 5.84769,1.33357 7.05795,-0.30132 1.30039,-1.75528 0.35515,-2.23907 -2.00497,-2.36424 -6.9041,-0.36303 -11.59719,-9.8673 -11.86754,-16.22517 -0.11254,-2.63191 1.55025,-3.72726 3.18708,-1.81953 1.63363,1.90817 3.62169,4.99775 5.22682,8.29801 1.00733,2.07377 1.76131,3.2634 2.00497,4.71688 1.6352,0.42364 3.87751,-1.02403 5.87583,-2.53806 2.12056,0.90816 8.11536,3.15139 10.47681,3.99834 -0.72655,0.30292 -2.36172,1.09225 -3.51158,1.57616 -1.39252,-0.78685 -3.33673,-0.24498 -3.88246,1.39072 -1.51333,0.48376 -1.93405,2.36209 -1.14734,3.75497 0.48564,-0.90833 1.21445,-1.75238 2.06291,-2.23675 1.33237,0.96954 3.38309,0.84459 3.9288,-1.27485 0.96765,-0.54448 2.49067,-1.15011 4.12583,-1.87747 1.66054,-0.73778 2.23893,-0.18242 2.96689,0.30133 0.72645,0.48449 2.53467,1.62974 3.92882,2.53807 0.66455,2.42234 2.24789,3.15826 4.42715,2.73509 0.84851,0.78686 1.45106,2.17845 1.69204,3.26822 1.0309,-0.84681 1.09194,-2.72416 0.24338,-4.0563 0.24266,-2.60463 -1.70137,-4.00651 -5.27317,-3.27979 -0.90883,-0.54512 -2.72703,-1.62975 -4.24173,-2.53807 1.02937,0 5.51149,0.0544 7.81125,0.11584 1.5147,1.14989 3.88153,1.09915 4.72848,-0.47515 1.02937,-0.54523 2.48292,-0.008 4.0563,0.17383 -0.54402,-1.8165 -2.17607,-2.78357 -4.26491,-2.32946 -1.27199,-1.18021 -2.91014,-1.18089 -4.63576,0.5447 -1.81603,0.18096 -4.35998,0.36153 -7.81125,0.45199 1.08964,-0.72614 2.63273,-1.80759 4.45033,-2.89736 1.63523,0.54516 3.36161,-0.0955 3.90562,-1.36755 1.18161,-1.09044 2.54856,-0.81706 4.18378,-0.5447 -0.18081,-2.63365 -2.17977,-2.90931 -4.99502,-1.81954 -1.63524,-0.90753 -4.17828,-0.003 -4.54305,2.0861 -1.08804,1.54465 -3.27326,2.45599 -5.72517,4.09106 -3.08965,-1.27203 -6.99614,-2.54262 -10.72019,-4.45034 0.81674,-0.81774 1.63087,-1.81534 2.53806,-2.72351 -6.05393,-3.02714 -10.65484,-6.17364 -12.71357,-12.71358 -0.68524,-2.1747 0.54369,-1.69356 1.08941,-0.30132 0.99761,2.54878 2.60332,4.23855 5.1457,5.38907 1.80539,0.81668 2.85064,-1.21108 1.51821,-2.42219 -1.33243,-1.21127 -2.54754,-3.27681 -2.60762,-5.75993 -0.0428,-1.75959 1.96518,-1.52764 2.30629,-0.60265 2.90724,7.87207 6.47564,13.25747 9.50331,11.9255 3.02767,-1.33214 1.59878,-3.08719 0,-3.87086 -3.08799,-1.51421 -4.83463,-6.12229 -5.01821,-8.48344 -0.18091,-2.36243 1.26781,-2.29104 2.23675,-0.47517 0.96909,1.81715 3.63662,5.26104 7.99669,10.10596 4.36008,4.84427 10.41432,5.93175 13.74503,3.02484 2.93899,-2.56371 0.10455,-4.16688 -2.79304,-3.44206 -5.57182,1.39272 -11.32499,-4.36811 -14.77649,-13.26987 -0.53304,-1.37478 0.48494,-1.58894 1.08941,-0.84602 7.75105,9.50588 14.23646,10.35987 17.9288,7.15066 1.29579,-1.1245 2.78502,-4.72052 -3.21027,-3.56954 -6.47744,1.24283 -10.3515,-3.64217 -14.89238,-10.30298 -2.019,-2.96085 -0.18363,-3.01917 1.63411,-1.26325 1.81603,1.7564 4.5401,3.80437 7.56788,5.62087 3.02778,1.81715 9.14385,1.58106 9.93212,-2.05133 0.78668,-3.63367 -1.93483,-3.51812 -4.90233,-2.54966 -5.15467,1.68391 -8.9617,-1.86793 -12.65562,-6.10762 -1.64785,-1.89027 -0.97776,-3.03086 0.47517,-2.36424 1.45281,0.66599 4.91116,2.30032 7.15066,3.51159 2.2411,1.21127 7.14168,2.05261 9.50331,-1.21689 2.36164,-3.27069 -1.33375,-5.20285 -4.29967,-3.08278 -2.96751,2.11945 -10.22809,0.18547 -13.07285,-3.56954 -2.84703,-3.75436 0.36521,-3.02902 2.12086,-2.12086 4.45048,2.30171 9.99294,2.53586 14.77649,-0.91556 2.17135,-1.56622 1.83486,-2.71047 1.08941,-3.98676 -0.42349,-0.72749 -1.87866,-0.91809 -3.75497,0.23179 -6.36643,3.90249 -11.44879,3.08976 -15.26325,-2.17881 -1.52107,-2.0985 0.36522,-2.23878 2.12087,-1.39072 7.41482,3.57925 15.01552,1.33048 17.25662,-3.99835 1.05155,-2.49924 -1.33306,-5.32807 -3.75497,-2.17881 -3.1388,4.07981 -8.18107,4.18101 -13.32781,3.45365 -2.47161,-0.34893 -2.48931,-3.47587 0.12748,-3.81292 5.63049,-0.72673 14.53409,-4.41931 17.19868,-8.95861 2.21254,-3.77178 -2.23776,-8.17762 -4.601,-3.69702 -2.36165,4.4822 -7.33016,7.39039 -12.78311,9.0861 -1.92221,0.59789 -2.60548,0.53569 -2.66556,-0.0695 -0.0872,-0.86327 -0.72699,-2.35889 -1.33278,-1.93543 -1.5131,0.84856 -6.95468,2.72811 -9.61921,3.69702 -2.66462,0.9683 -3.87513,3.39216 -3.75497,5.63245 0.12054,2.24094 0.72634,6.17716 -3.21026,6.17716 -6.29787,0 -3.66782,-10.18085 0.058,-13.25828 2.87551,-2.37576 5.99418,-3.51406 8.35597,-3.45364 2.36162,0.0603 5.17332,-0.91002 5.44701,-3.04802 0.5741,-0.12202 1.67157,-0.39404 2.79305,-0.39404 0.84712,0 2.44507,-0.87987 3.23345,-1.57616 0.78503,-0.69625 1.72545,-1.81398 0.93874,-2.48013 -0.78837,-0.66611 -2.03126,0.45179 -2.5149,1.39073 -0.48531,0.93737 -1.51995,1.60846 -2.05133,1.66887 -0.78336,0.0888 -2.13628,0.29426 -2.86258,0.47517 -0.72796,0.18081 -1.90984,0.004 -2.21358,-0.35927 -0.59179,-0.71054 0.0665,-1.13845 0.86921,-1.4255 0.91988,-0.3299 1.89176,-0.22072 2.1788,0.37086 0.20128,0.41395 0.55511,0.78562 1.2053,0.84603 0.7264,-4.05713 -3.20815,-3.87926 -6.47847,-3.69702 -0.66622,-1.06207 -1.70169,-1.51308 -2.90894,-1.57616 -2.30451,-0.1202 -5.24494,1.16364 -7.50994,2.23675 -1.6352,0.36479 -4.41378,0.18865 -5.80628,-0.41721 -1.39252,-0.60587 -1.32967,0.12193 -0.84603,0.78808 0.48531,0.66614 2.24059,1.87041 2.96689,2.05132 0.72661,0.18238 0.48368,0.55455 0.24338,0.85762 -0.76602,0.95796 -2.4931,1.87288 -3.27982,1.99337 -0.78636,0.12213 -1.0262,0.48502 -0.60263,0.78808 0.42355,0.30294 1.02829,0.66345 1.63409,0.84603 0.60748,0.18081 0.54859,0.42023 0.18544,0.90397 -0.7502,0.99923 -2.73115,2.01124 -3.39569,1.88908 -0.6669,-0.12057 -0.72707,0.24163 -0.48677,0.5447 0.24267,0.30293 1.1604,0.71854 1.6457,0.71854 0.48464,0 0.5221,0.10006 0.11585,0.61424 -0.43925,0.55687 -1.42089,1.75862 -2.29471,1.50662 -1.18089,-0.34132 -1.48731,-0.0474 -1.12417,0.45199 0.8548,1.17702 0.81611,1.68716 -0.88079,1.9702 -1.69698,-0.28311 -1.73568,-0.79319 -0.88079,-1.9702 0.3632,-0.49944 0.0575,-0.79331 -1.12418,-0.45199 -0.87391,0.25218 -1.85536,-0.94976 -2.2947,-1.50662 -0.40608,-0.51419 -0.3678,-0.61424 0.11584,-0.61424 0.48534,0 1.40303,-0.4156 1.6457,-0.71854 0.24107,-0.30294 0.17939,-0.66525 -0.48676,-0.5447 -0.66456,0.12212 -2.64549,-0.88986 -3.39569,-1.88908 -0.36321,-0.48374 -0.42045,-0.72316 0.18542,-0.90397 0.60588,-0.1824 1.21063,-0.54309 1.63411,-0.84603 0.42348,-0.30293 0.18404,-0.66595 -0.60265,-0.78808 -0.78668,-0.12054 -2.51373,-1.0354 -3.2798,-1.99337 -0.24108,-0.30294 -0.48303,-0.67522 0.24338,-0.85762 0.72641,-0.18081 2.48156,-1.38518 2.96689,-2.05132 0.48374,-0.66615 0.54653,-1.39396 -0.84603,-0.78808 -1.39256,0.60587 -4.17109,0.78201 -5.80628,0.41721 -2.26489,-1.07311 -5.20542,-2.35693 -7.50994,-2.23675 z m 1.47185,3.68543 c 0.62372,0.004 1.29011,0.18712 1.91226,0.49834 0.84692,0.42501 0.54997,1.15042 -0.11585,1.33279 -0.66589,0.18237 -1.94014,0.17541 -2.90894,-0.12749 -0.96825,-0.30289 -0.78957,-1.14346 0.058,-1.50662 0.31797,-0.13618 0.68038,-0.19956 1.05462,-0.19702 z m 35.92715,0 c 0.3745,-0.003 0.73755,0.0608 1.05464,0.19702 0.84612,0.36315 1.02623,1.20389 0.058,1.50662 -0.96861,0.30307 -2.24307,0.30973 -2.90895,0.12749 -0.66687,-0.18238 -0.96268,-0.90779 -0.11584,-1.33279 0.62215,-0.31107 1.28842,-0.49402 1.91225,-0.49834 z"
   id="path3007-1"
   inkscape:connector-curvature="0" /></svg>